<svg width="195" height="20" viewBox="0 0 195 20" fill="none" xmlns="http://www.w3.org/2000/svg">
<path d="M7.00807 1.828C8.23207 1.828 9.31807 2.104 10.2661 2.656C11.2141 3.196 11.9521 3.952 12.4801 4.924C13.0081 5.896 13.2721 7 13.2721 8.236C13.2721 9.472 13.0081 10.582 12.4801 11.566C11.9521 12.538 11.2141 13.3 10.2661 13.852C9.31807 14.392 8.23207 14.662 7.00807 14.662C5.78407 14.662 4.69207 14.392 3.73207 13.852C2.78407 13.3 2.04607 12.538 1.51807 11.566C0.990071 10.582 0.726071 9.472 0.726071 8.236C0.726071 7 0.990071 5.896 1.51807 4.924C2.04607 3.952 2.78407 3.196 3.73207 2.656C4.69207 2.104 5.78407 1.828 7.00807 1.828ZM7.00807 2.656C5.91607 2.656 4.96207 2.884 4.14607 3.34C3.34207 3.796 2.71807 4.45 2.27407 5.302C1.84207 6.142 1.62607 7.12 1.62607 8.236C1.62607 9.352 1.84207 10.33 2.27407 11.17C2.71807 12.01 3.34207 12.664 4.14607 13.132C4.96207 13.6 5.91607 13.834 7.00807 13.834C8.08807 13.834 9.03007 13.6 9.83407 13.132C10.6501 12.664 11.2741 12.01 11.7061 11.17C12.1501 10.33 12.3721 9.352 12.3721 8.236C12.3721 7.12 12.1501 6.142 11.7061 5.302C11.2741 4.45 10.6561 3.796 9.85207 3.34C9.04807 2.884 8.10007 2.656 7.00807 2.656ZM6.95407 4.096C6.22207 4.096 5.55607 4.27 4.95607 4.618C4.35607 4.954 3.88207 5.434 3.53407 6.058C3.19807 6.682 3.03007 7.402 3.03007 8.218C3.03007 9.034 3.20407 9.76 3.55207 10.396C3.90007 11.02 4.36807 11.506 4.95607 11.854C5.55607 12.19 6.22207 12.358 6.95407 12.358C7.86607 12.358 8.65207 12.118 9.31207 11.638C9.97207 11.146 10.4161 10.504 10.6441 9.712H8.77207C8.61607 10.096 8.39407 10.39 8.10607 10.594C7.81807 10.798 7.43407 10.9 6.95407 10.9C6.31807 10.9 5.80807 10.672 5.42407 10.216C5.04007 9.748 4.84807 9.082 4.84807 8.218C4.84807 7.354 5.04007 6.694 5.42407 6.238C5.80807 5.782 6.31807 5.554 6.95407 5.554C7.41007 5.554 7.79407 5.656 8.10607 5.86C8.43007 6.064 8.65207 6.358 8.77207 6.742H10.6441C10.4161 5.902 9.97807 5.254 9.33007 4.798C8.68207 4.33 7.89007 4.096 6.95407 4.096ZM21.783 12.844H26.013V14.5H19.731V1.99H21.783V12.844ZM31.833 14.662C30.897 14.662 30.051 14.452 29.295 14.032C28.539 13.6 27.945 13 27.513 12.232C27.081 11.452 26.865 10.552 26.865 9.532C26.865 8.524 27.087 7.63 27.531 6.85C27.975 6.07 28.581 5.47 29.349 5.05C30.117 4.63 30.975 4.42 31.923 4.42C32.871 4.42 33.729 4.63 34.497 5.05C35.265 5.47 35.871 6.07 36.315 6.85C36.759 7.63 36.981 8.524 36.981 9.532C36.981 10.54 36.753 11.434 36.297 12.214C35.841 12.994 35.217 13.6 34.425 14.032C33.645 14.452 32.781 14.662 31.833 14.662ZM31.833 12.88C32.361 12.88 32.853 12.754 33.309 12.502C33.777 12.25 34.155 11.872 34.443 11.368C34.731 10.864 34.875 10.252 34.875 9.532C34.875 8.812 34.737 8.206 34.461 7.714C34.185 7.21 33.819 6.832 33.363 6.58C32.907 6.328 32.415 6.202 31.887 6.202C31.359 6.202 30.867 6.328 30.411 6.58C29.967 6.832 29.613 7.21 29.349 7.714C29.085 8.206 28.953 8.812 28.953 9.532C28.953 10.6 29.223 11.428 29.763 12.016C30.315 12.592 31.005 12.88 31.833 12.88ZM43.8155 4.42C44.5955 4.42 45.2915 4.582 45.9035 4.906C46.5275 5.23 47.0135 5.71 47.3615 6.346C47.7095 6.982 47.8835 7.75 47.8835 8.65V14.5H45.8495V8.956C45.8495 8.068 45.6275 7.39 45.1835 6.922C44.7395 6.442 44.1335 6.202 43.3655 6.202C42.5975 6.202 41.9855 6.442 41.5295 6.922C41.0855 7.39 40.8635 8.068 40.8635 8.956V14.5H38.8115V4.582H40.8635V5.716C41.1995 5.308 41.6255 4.99 42.1415 4.762C42.6695 4.534 43.2275 4.42 43.8155 4.42ZM54.299 4.42C55.067 4.42 55.745 4.576 56.333 4.888C56.933 5.188 57.401 5.566 57.737 6.022V4.582H59.807V14.662C59.807 15.574 59.615 16.384 59.231 17.092C58.847 17.812 58.289 18.376 57.557 18.784C56.837 19.192 55.973 19.396 54.965 19.396C53.621 19.396 52.505 19.078 51.617 18.442C50.729 17.818 50.225 16.966 50.105 15.886H52.139C52.295 16.402 52.625 16.816 53.129 17.128C53.645 17.452 54.257 17.614 54.965 17.614C55.793 17.614 56.459 17.362 56.963 16.858C57.479 16.354 57.737 15.622 57.737 14.662V13.006C57.389 13.474 56.915 13.87 56.315 14.194C55.727 14.506 55.055 14.662 54.299 14.662C53.435 14.662 52.643 14.446 51.923 14.014C51.215 13.57 50.651 12.958 50.231 12.178C49.823 11.386 49.619 10.492 49.619 9.496C49.619 8.5 49.823 7.618 50.231 6.85C50.651 6.082 51.215 5.488 51.923 5.068C52.643 4.636 53.435 4.42 54.299 4.42ZM57.737 9.532C57.737 8.848 57.593 8.254 57.305 7.75C57.029 7.246 56.663 6.862 56.207 6.598C55.751 6.334 55.259 6.202 54.731 6.202C54.203 6.202 53.711 6.334 53.255 6.598C52.799 6.85 52.427 7.228 52.139 7.732C51.863 8.224 51.725 8.812 51.725 9.496C51.725 10.18 51.863 10.78 52.139 11.296C52.427 11.812 52.799 12.208 53.255 12.484C53.723 12.748 54.215 12.88 54.731 12.88C55.259 12.88 55.751 12.748 56.207 12.484C56.663 12.22 57.029 11.836 57.305 11.332C57.593 10.816 57.737 10.216 57.737 9.532ZM71.0522 5.716C71.0522 6.352 70.9022 6.952 70.6022 7.516C70.3022 8.08 69.8222 8.542 69.1622 8.902C68.5022 9.25 67.6562 9.424 66.6242 9.424H64.3562V14.5H62.3042V1.99H66.6242C67.5842 1.99 68.3942 2.158 69.0542 2.494C69.7262 2.818 70.2242 3.262 70.5482 3.826C70.8842 4.39 71.0522 5.02 71.0522 5.716ZM66.6242 7.75C67.4042 7.75 67.9862 7.576 68.3702 7.228C68.7542 6.868 68.9462 6.364 68.9462 5.716C68.9462 4.348 68.1722 3.664 66.6242 3.664H64.3562V7.75H66.6242ZM74.8633 1.18V14.5H72.8113V1.18H74.8633ZM76.6754 9.496C76.6754 8.5 76.8794 7.618 77.2874 6.85C77.7074 6.082 78.2714 5.488 78.9794 5.068C79.6994 4.636 80.4914 4.42 81.3554 4.42C82.1354 4.42 82.8134 4.576 83.3894 4.888C83.9774 5.188 84.4454 5.566 84.7934 6.022V4.582H86.8634V14.5H84.7934V13.024C84.4454 13.492 83.9714 13.882 83.3714 14.194C82.7714 14.506 82.0874 14.662 81.3194 14.662C80.4674 14.662 79.6874 14.446 78.9794 14.014C78.2714 13.57 77.7074 12.958 77.2874 12.178C76.8794 11.386 76.6754 10.492 76.6754 9.496ZM84.7934 9.532C84.7934 8.848 84.6494 8.254 84.3614 7.75C84.0854 7.246 83.7194 6.862 83.2634 6.598C82.8074 6.334 82.3154 6.202 81.7874 6.202C81.2594 6.202 80.7674 6.334 80.3114 6.598C79.8554 6.85 79.4834 7.228 79.1954 7.732C78.9194 8.224 78.7814 8.812 78.7814 9.496C78.7814 10.18 78.9194 10.78 79.1954 11.296C79.4834 11.812 79.8554 12.208 80.3114 12.484C80.7794 12.748 81.2714 12.88 81.7874 12.88C82.3154 12.88 82.8074 12.748 83.2634 12.484C83.7194 12.22 84.0854 11.836 84.3614 11.332C84.6494 10.816 84.7934 10.216 84.7934 9.532ZM98.2886 4.582L92.2046 19.162H90.0806L92.0966 14.338L88.1906 4.582H90.4766L93.2666 12.142L96.1646 4.582H98.2886ZM114.899 1.99L110.201 14.5H107.825L103.109 1.99H105.305L109.013 12.394L112.739 1.99H114.899ZM117.461 3.268C117.089 3.268 116.777 3.142 116.525 2.89C116.273 2.638 116.147 2.326 116.147 1.954C116.147 1.582 116.273 1.27 116.525 1.018C116.777 0.765999 117.089 0.639999 117.461 0.639999C117.821 0.639999 118.127 0.765999 118.379 1.018C118.631 1.27 118.757 1.582 118.757 1.954C118.757 2.326 118.631 2.638 118.379 2.89C118.127 3.142 117.821 3.268 117.461 3.268ZM118.469 4.582V14.5H116.417V4.582H118.469ZM125.969 4.42C126.749 4.42 127.445 4.582 128.057 4.906C128.681 5.23 129.167 5.71 129.515 6.346C129.863 6.982 130.037 7.75 130.037 8.65V14.5H128.003V8.956C128.003 8.068 127.781 7.39 127.337 6.922C126.893 6.442 126.287 6.202 125.519 6.202C124.751 6.202 124.139 6.442 123.683 6.922C123.239 7.39 123.017 8.068 123.017 8.956V14.5H120.965V4.582H123.017V5.716C123.353 5.308 123.779 4.99 124.295 4.762C124.823 4.534 125.381 4.42 125.969 4.42ZM141.385 4.582L135.301 19.162H133.177L135.193 14.338L131.287 4.582H133.573L136.363 12.142L139.261 4.582H141.385ZM144.787 1.18V14.5H142.735V1.18H144.787ZM155.361 14.662C154.581 14.662 153.879 14.524 153.255 14.248C152.643 13.96 152.157 13.576 151.797 13.096C151.437 12.604 151.245 12.058 151.221 11.458H153.345C153.381 11.878 153.579 12.232 153.939 12.52C154.311 12.796 154.773 12.934 155.325 12.934C155.901 12.934 156.345 12.826 156.657 12.61C156.981 12.382 157.143 12.094 157.143 11.746C157.143 11.374 156.963 11.098 156.603 10.918C156.255 10.738 155.697 10.54 154.929 10.324C154.185 10.12 153.579 9.922 153.111 9.73C152.643 9.538 152.235 9.244 151.887 8.848C151.551 8.452 151.383 7.93 151.383 7.282C151.383 6.754 151.539 6.274 151.851 5.842C152.163 5.398 152.607 5.05 153.183 4.798C153.771 4.546 154.443 4.42 155.199 4.42C156.327 4.42 157.233 4.708 157.917 5.284C158.613 5.848 158.985 6.622 159.033 7.606H156.981C156.945 7.162 156.765 6.808 156.441 6.544C156.117 6.28 155.679 6.148 155.127 6.148C154.587 6.148 154.173 6.25 153.885 6.454C153.597 6.658 153.453 6.928 153.453 7.264C153.453 7.528 153.549 7.75 153.741 7.93C153.933 8.11 154.167 8.254 154.443 8.362C154.719 8.458 155.127 8.584 155.667 8.74C156.387 8.932 156.975 9.13 157.431 9.334C157.899 9.526 158.301 9.814 158.637 10.198C158.973 10.582 159.147 11.092 159.159 11.728C159.159 12.292 159.003 12.796 158.691 13.24C158.379 13.684 157.935 14.032 157.359 14.284C156.795 14.536 156.129 14.662 155.361 14.662ZM163.572 6.256V11.746C163.572 12.118 163.656 12.388 163.824 12.556C164.004 12.712 164.304 12.79 164.724 12.79H165.984V14.5H164.364C163.44 14.5 162.732 14.284 162.24 13.852C161.748 13.42 161.502 12.718 161.502 11.746V6.256H160.332V4.582H161.502V2.116H163.572V4.582H165.984V6.256H163.572ZM171.979 14.662C171.043 14.662 170.197 14.452 169.441 14.032C168.685 13.6 168.091 13 167.659 12.232C167.227 11.452 167.011 10.552 167.011 9.532C167.011 8.524 167.233 7.63 167.677 6.85C168.121 6.07 168.727 5.47 169.495 5.05C170.263 4.63 171.121 4.42 172.069 4.42C173.017 4.42 173.875 4.63 174.643 5.05C175.411 5.47 176.017 6.07 176.461 6.85C176.905 7.63 177.127 8.524 177.127 9.532C177.127 10.54 176.899 11.434 176.443 12.214C175.987 12.994 175.363 13.6 174.571 14.032C173.791 14.452 172.927 14.662 171.979 14.662ZM171.979 12.88C172.507 12.88 172.999 12.754 173.455 12.502C173.923 12.25 174.301 11.872 174.589 11.368C174.877 10.864 175.021 10.252 175.021 9.532C175.021 8.812 174.883 8.206 174.607 7.714C174.331 7.21 173.965 6.832 173.509 6.58C173.053 6.328 172.561 6.202 172.033 6.202C171.505 6.202 171.013 6.328 170.557 6.58C170.113 6.832 169.759 7.21 169.495 7.714C169.231 8.206 169.099 8.812 169.099 9.532C169.099 10.6 169.369 11.428 169.909 12.016C170.461 12.592 171.151 12.88 171.979 12.88ZM181.01 6.022C181.31 5.518 181.706 5.128 182.198 4.852C182.702 4.564 183.296 4.42 183.98 4.42V6.544H183.458C182.654 6.544 182.042 6.748 181.622 7.156C181.214 7.564 181.01 8.272 181.01 9.28V14.5H178.958V4.582H181.01V6.022ZM194.758 9.298C194.758 9.67 194.734 10.006 194.686 10.306H187.108C187.168 11.098 187.462 11.734 187.99 12.214C188.518 12.694 189.166 12.934 189.934 12.934C191.038 12.934 191.818 12.472 192.274 11.548H194.488C194.188 12.46 193.642 13.21 192.85 13.798C192.07 14.374 191.098 14.662 189.934 14.662C188.986 14.662 188.134 14.452 187.378 14.032C186.634 13.6 186.046 13 185.614 12.232C185.194 11.452 184.984 10.552 184.984 9.532C184.984 8.512 185.188 7.618 185.596 6.85C186.016 6.07 186.598 5.47 187.342 5.05C188.098 4.63 188.962 4.42 189.934 4.42C190.87 4.42 191.704 4.624 192.436 5.032C193.168 5.44 193.738 6.016 194.146 6.76C194.554 7.492 194.758 8.338 194.758 9.298ZM192.616 8.65C192.604 7.894 192.334 7.288 191.806 6.832C191.278 6.376 190.624 6.148 189.844 6.148C189.136 6.148 188.53 6.376 188.026 6.832C187.522 7.276 187.222 7.882 187.126 8.65H192.616Z" fill="#F4F7F5"/>
</svg>
