<svg width="97" height="53" viewBox="0 0 97 53" fill="none" xmlns="http://www.w3.org/2000/svg">
<path fill-rule="evenodd" clip-rule="evenodd" d="M2.96212 14.5053V0.214355H0V17.0516H13.4594V14.5053H2.96212ZM18.8126 16.558C19.9559 17.0776 21.2464 17.3375 22.6842 17.3375C24.1219 17.3375 25.4038 17.0776 26.5297 16.558C27.6557 16.0383 28.5391 15.2761 29.1801 14.2714C29.8383 13.2667 30.1674 12.0455 30.1674 10.6077C30.1674 9.18731 29.8383 7.97475 29.1801 6.97006C28.5391 5.94804 27.6557 5.16854 26.5297 4.63155C25.4038 4.09455 24.1219 3.82606 22.6842 3.82606C21.2464 3.82606 19.9559 4.09455 18.8126 4.63155C17.6694 5.16854 16.7686 5.94804 16.1104 6.97006C15.4521 7.97475 15.123 9.18731 15.123 10.6077C15.123 12.0455 15.4521 13.2667 16.1104 14.2714C16.7686 15.2761 17.6694 16.0383 18.8126 16.558ZM24.9707 14.4793C24.2778 14.8084 23.5157 14.973 22.6842 14.973C21.8354 14.973 21.0559 14.8084 20.3457 14.4793C19.6528 14.1502 19.0985 13.6565 18.6827 12.9982C18.267 12.34 18.0591 11.5431 18.0591 10.6077C18.0591 9.65502 18.267 8.84953 18.6827 8.19128C19.1158 7.53303 19.6788 7.03069 20.3717 6.68424C21.0645 6.33779 21.8354 6.16457 22.6842 6.16457C23.533 6.16457 24.2952 6.34645 24.9707 6.71022C25.6636 7.05667 26.2093 7.55902 26.6077 8.21726C27.0234 8.87551 27.2313 9.67234 27.2313 10.6077C27.2313 11.5431 27.0234 12.34 26.6077 12.9982C26.2093 13.6565 25.6636 14.1502 24.9707 14.4793ZM35.6329 4.11188H32.7487V17.0516H35.6329V9.34991C35.7615 8.95749 35.9607 8.5886 36.2305 8.24325C36.6636 7.67161 37.2179 7.21257 37.8935 6.86612C38.5863 6.50236 39.3485 6.32047 40.18 6.32047C41.2713 6.32047 42.0681 6.58031 42.5705 7.09997C43.0902 7.60232 43.35 8.38183 43.35 9.43849V17.0516H46.2342V8.86685C46.2342 8.01806 46.1042 7.28186 45.8444 6.65826C45.6019 6.03465 45.2468 5.51498 44.7791 5.09925C44.3287 4.66619 43.783 4.34573 43.1421 4.13786C42.5185 3.92999 41.8343 3.82606 41.0894 3.82606C40.2926 3.82606 39.5651 3.95598 38.9068 4.21581C38.2486 4.47564 37.6769 4.83941 37.1919 5.30712C36.7069 5.7575 36.3171 6.27716 36.0226 6.86612C35.8617 7.1786 35.7317 7.50144 35.6329 7.83462V4.11188ZM55.1881 15.0509C54.1661 15.0856 53.3866 15.1808 52.8496 15.3367C52.3299 15.4753 52.0701 15.7611 52.0701 16.1942C52.0701 16.454 52.174 16.6619 52.3819 16.8178C52.5897 16.9737 52.8842 17.0516 53.2653 17.0516H56.955C58.0116 17.0516 58.9384 17.1729 59.7352 17.4154C60.532 17.6752 61.147 18.0996 61.58 18.6886C62.0304 19.2949 62.2556 20.1177 62.2556 21.157V22.3263H59.3455V21.7287C59.3455 20.8799 59.0943 20.2823 58.5919 19.9358C58.0896 19.5894 57.388 19.4161 56.4873 19.4161H52.9795C52.2866 19.4161 51.689 19.3555 51.1866 19.2343C50.7016 19.1303 50.3119 18.9658 50.0174 18.7406C49.7229 18.5327 49.5064 18.2815 49.3678 17.987C49.2292 17.7099 49.1599 17.3981 49.1599 17.0516C49.1599 16.3588 49.3678 15.8391 49.7835 15.4926C50.2166 15.1462 50.7796 14.921 51.4725 14.8171C51.8947 14.7553 52.3292 14.7241 52.7759 14.7235C52.4705 14.6344 52.1746 14.527 51.8882 14.4013C50.9181 13.9683 50.1473 13.336 49.5757 12.5045C49.0214 11.6731 48.7442 10.677 48.7442 9.51644C48.7442 8.35584 49.0127 7.35115 49.5497 6.50236C50.104 5.65356 50.8662 4.99531 51.8362 4.52761C52.8236 4.05991 53.9409 3.82606 55.1881 3.82606C55.5519 3.82606 55.8983 3.85204 56.2274 3.90401C56.5739 3.95597 56.903 4.02526 57.2148 4.11188L63.269 4.13786V6.55432C62.4375 6.57164 61.5974 6.45905 60.7486 6.21654C60.188 6.04137 59.6708 5.86227 59.1969 5.67924C59.4996 5.87956 59.783 6.10196 60.047 6.34645C60.532 6.76219 60.9131 7.23855 61.1903 7.77554C61.4674 8.31254 61.606 8.91882 61.606 9.59439C61.606 10.7377 61.3289 11.7164 60.7745 12.5305C60.2376 13.3447 59.484 13.9683 58.514 14.4013C57.5613 14.8344 56.4526 15.0509 55.1881 15.0509ZM57.0329 12.4006C56.4959 12.6604 55.881 12.7904 55.1881 12.7904C54.4952 12.7904 53.8803 12.6604 53.3433 12.4006C52.8063 12.1408 52.3819 11.7683 52.0701 11.2833C51.7583 10.7983 51.6024 10.2093 51.6024 9.51644C51.6024 8.80622 51.7583 8.2086 52.0701 7.72358C52.3819 7.22123 52.8063 6.84014 53.3433 6.58031C53.8976 6.32047 54.5125 6.19055 55.1881 6.19055C55.881 6.19055 56.4959 6.32047 57.0329 6.58031C57.5699 6.84014 57.9943 7.22123 58.3061 7.72358C58.6179 8.22592 58.7738 8.82354 58.7738 9.51644C58.7738 10.2093 58.6179 10.7983 58.3061 11.2833C57.9943 11.7683 57.5699 12.1408 57.0329 12.4006ZM62.2418 22.3295H59.2781L59.5547 47.501H62.4389L62.2418 22.3295ZM43.9705 41.8626V47.501H41.0084V30.6637H50.1546C51.0381 30.6637 51.8609 30.785 52.623 31.0275C53.3852 31.2527 54.0521 31.5991 54.6238 32.0668C55.2127 32.5345 55.6631 33.1235 55.9749 33.8337C56.304 34.5266 56.4686 35.3581 56.4686 36.3281C56.4686 37.2809 56.304 38.1123 55.9749 38.8225C55.6631 39.5154 55.2127 40.0871 54.6238 40.5375C54.0521 40.9878 53.3852 41.3256 52.623 41.5508C51.8609 41.7587 51.0381 41.8626 50.1546 41.8626H43.9705ZM43.9705 39.3942H50.3625C51.3152 39.3942 52.0774 39.117 52.649 38.5627C53.238 38.0084 53.5325 37.2635 53.5325 36.3281C53.5325 35.3581 53.238 34.6046 52.649 34.0676C52.0774 33.5133 51.3152 33.2361 50.3625 33.2361H43.9705V39.3942ZM71.7114 47.7868C70.5334 47.7868 69.4508 47.501 68.4634 46.9294C67.4934 46.3578 66.7139 45.5696 66.1249 44.5649C65.5533 43.5429 65.2675 42.3736 65.2675 41.0571C65.2675 39.706 65.5619 38.5281 66.1509 37.5234C66.7398 36.5014 67.5367 35.7045 68.5414 35.1329C69.5461 34.5613 70.672 34.2754 71.9192 34.2754C73.305 34.2754 74.405 34.5786 75.2191 35.1849C76.0333 35.7911 76.6136 36.6053 76.96 37.6273C77.0381 37.8577 77.1074 38.0942 77.1679 38.3369V34.5613H80.078V47.501H77.3758L77.3238 47.0073C77.2891 46.6782 77.2545 46.2798 77.2199 45.8121C77.1852 45.3271 77.1679 44.868 77.1679 44.435V43.3177C76.96 44.0972 76.6309 44.8247 76.1805 45.5003C75.7475 46.1759 75.1585 46.7302 74.4136 47.1632C73.6861 47.579 72.7853 47.7868 71.7114 47.7868ZM76.6222 43.2917C76.986 42.6335 77.1679 41.8886 77.1679 41.0571C77.1679 40.139 76.986 39.3595 76.6222 38.7186C76.2585 38.0604 75.7388 37.558 75.0632 37.2116C74.3877 36.8478 73.5648 36.6659 72.5948 36.6659C71.209 36.6659 70.135 37.073 69.3728 37.8871C68.6107 38.7013 68.2296 39.758 68.2296 41.0571C68.2296 41.9059 68.4115 42.6594 68.7752 43.3177C69.1563 43.9759 69.676 44.4869 70.3342 44.8507C70.9925 45.2145 71.746 45.3964 72.5948 45.3964C73.5648 45.3964 74.3877 45.2145 75.0632 44.8507C75.7561 44.4696 76.2758 43.95 76.6222 43.2917ZM85.1712 34.5613H82.0792L87.8303 47.3472L85.1452 52.6977H88.1853L96.5 34.5613H93.408L89.2634 44.293L85.1712 34.5613Z" fill="#F3F3F3"/>
<path d="M87.4108 1.36819C85.6578 0.492984 83.7296 0.0256005 81.7704 0.00102236C79.8113 -0.0235557 77.8719 0.395308 76.0976 1.22626C74.3232 2.05722 72.7598 3.27874 71.5243 4.79941C70.2888 6.32007 69.4132 8.10049 68.9631 10.0074C68.5131 11.9143 68.5001 13.8983 68.9253 15.8109C69.3505 17.7236 70.2027 19.5152 71.4183 21.0519C72.6339 22.5885 74.1812 23.8303 75.9446 24.6844C77.708 25.5384 79.6417 25.9825 81.601 25.9835C84.5289 25.9849 87.3714 24.9974 89.6676 23.1809C91.9639 21.3645 93.5792 18.8256 94.2518 15.9761C94.9243 13.1265 94.6147 10.1333 93.3729 7.48185C92.1312 4.83036 90.0303 2.67604 87.4108 1.36819V1.36819ZM81.601 13.8037C81.4755 13.8048 81.3515 13.7756 81.2397 13.7185C81.1017 13.6495 80.9863 13.5427 80.9068 13.4105C80.8274 13.2783 80.7872 13.1262 80.7911 12.972C80.7949 12.8178 80.8426 12.6679 80.9285 12.5398C81.0144 12.4118 81.135 12.3108 81.2762 12.2488C81.3786 12.2036 81.4892 12.1801 81.601 12.1798C81.7266 12.1787 81.8505 12.2079 81.9624 12.265C82.1003 12.334 82.2158 12.4408 82.2952 12.573C82.3747 12.7052 82.4148 12.8573 82.411 13.0115C82.4072 13.1656 82.3595 13.3155 82.2736 13.4436C82.1876 13.5717 82.067 13.6727 81.9258 13.7347C81.8235 13.7798 81.7129 13.8033 81.601 13.8037Z" fill="#F3F3F3"/>
<path d="M81.6012 8.93164C80.7982 8.93164 80.0133 9.16975 79.3456 9.61586C78.678 10.062 78.1576 10.696 77.8503 11.4379C77.543 12.1797 77.4626 12.9961 77.6193 13.7836C77.7759 14.5712 78.1626 15.2946 78.7304 15.8624C79.2982 16.4301 80.0216 16.8168 80.8091 16.9735C81.5967 17.1301 82.413 17.0497 83.1548 16.7424C83.8967 16.4352 84.5308 15.9148 84.9769 15.2471C85.423 14.5795 85.6611 13.7945 85.6611 12.9916C85.6611 11.9148 85.2334 10.8821 84.472 10.1208C83.7106 9.35938 82.6779 8.93164 81.6012 8.93164ZM81.6012 13.8035C81.4406 13.8035 81.2836 13.7559 81.1501 13.6667C81.0165 13.5775 80.9125 13.4507 80.851 13.3023C80.7895 13.1539 80.7735 12.9907 80.8048 12.8331C80.8361 12.6756 80.9135 12.531 81.027 12.4174C81.1406 12.3038 81.2853 12.2265 81.4428 12.1952C81.6003 12.1638 81.7635 12.1799 81.9119 12.2414C82.0603 12.3028 82.1871 12.4069 82.2763 12.5404C82.3655 12.674 82.4132 12.831 82.4132 12.9916C82.4132 13.2069 82.3276 13.4134 82.1753 13.5657C82.0231 13.718 81.8165 13.8035 81.6012 13.8035Z" fill="#DFDFDF"/>
<g opacity="0.1">
<path d="M77.4883 0.666016L81.3412 12.2205C81.2214 12.259 81.1128 12.3259 81.0245 12.4154C80.9448 12.4951 80.8826 12.5905 80.8418 12.6956L69.5024 8.25806C70.1973 6.48556 71.2726 4.88708 72.6524 3.57531C74.0322 2.26355 75.683 1.27044 77.4883 0.666016V0.666016Z" fill="#F3DBD7"/>
<path d="M93.6993 17.7256C93.004 19.4985 91.9281 21.0972 90.5476 22.409C89.1671 23.7208 87.5155 24.7137 85.7094 25.3176L81.8606 13.7631C81.9803 13.7246 82.089 13.6578 82.1773 13.5682C82.2569 13.4885 82.3192 13.3931 82.36 13.2881L93.6993 17.7256Z" fill="#F3DBD7"/>
</g>
</svg>
