<svg width="24" height="25" viewBox="0 0 24 25" fill="none" xmlns="http://www.w3.org/2000/svg">
<g clip-path="url(#clip0_695_6839)">
<path d="M17.25 23.7061H6.75C3.45 23.7061 0.75 21.0061 0.75 17.7061V7.20605C0.75 3.90605 3.45 1.20605 6.75 1.20605H17.25C20.55 1.20605 23.25 3.90605 23.25 7.20605V17.7061C23.25 21.0061 20.55 23.7061 17.25 23.7061Z" stroke="#F3F3F3" stroke-width="2" stroke-miterlimit="10" stroke-linecap="round" stroke-linejoin="round"/>
<path d="M12 17.7061C14.8995 17.7061 17.25 15.3555 17.25 12.4561C17.25 9.55656 14.8995 7.20605 12 7.20605C9.10051 7.20605 6.75 9.55656 6.75 12.4561C6.75 15.3555 9.10051 17.7061 12 17.7061Z" stroke="#F3F3F3" stroke-width="2" stroke-miterlimit="10" stroke-linecap="round" stroke-linejoin="round"/>
<path d="M18 6.45605C18.4142 6.45605 18.75 6.12027 18.75 5.70605C18.75 5.29184 18.4142 4.95605 18 4.95605C17.5858 4.95605 17.25 5.29184 17.25 5.70605C17.25 6.12027 17.5858 6.45605 18 6.45605Z" stroke="#F3F3F3" stroke-width="2" stroke-miterlimit="10" stroke-linecap="round" stroke-linejoin="round"/>
</g>
<defs>
<clipPath id="clip0_695_6839">
<rect width="24" height="24" fill="white" transform="translate(0 0.456055)"/>
</clipPath>
</defs>
</svg>
