<svg width="13" height="8" viewBox="0 0 13 8" fill="black" xmlns="http://www.w3.org/2000/svg">
<path d="M12.6301 1.22238L12.0289 0.621259C11.9488 0.540986 11.8566 0.500977 11.7522 0.500977C11.6482 0.500977 11.5559 0.540986 11.4758 0.621259L6.75006 5.34677L2.02451 0.621386C1.94436 0.541113 1.85213 0.501103 1.74793 0.501103C1.6437 0.501103 1.55146 0.541113 1.47136 0.621386L0.870283 1.22255C0.79001 1.30265 0.75 1.39488 0.75 1.49912C0.75 1.60327 0.790136 1.69551 0.870283 1.77561L6.47349 7.37894C6.55359 7.45909 6.64587 7.49914 6.75006 7.49914C6.85426 7.49914 6.94637 7.45909 7.02643 7.37894L12.6301 1.77561C12.7102 1.69546 12.75 1.60323 12.75 1.49912C12.75 1.39488 12.7102 1.30265 12.6301 1.22238Z" fill="inherit"/>
</svg>
