<svg width="28" height="28" viewBox="0 0 28 28" fill="none" xmlns="http://www.w3.org/2000/svg">
<g clip-path="url(#clip0_594_8087)">
<path d="M22.6476 25.375H8.00819C7.19374 25.3748 6.39009 25.1886 5.65853 24.8307C4.92698 24.4727 4.28684 23.9524 3.78695 23.3094C3.28705 22.6664 2.94061 21.9177 2.77405 21.1205C2.60749 20.3233 2.6252 19.4985 2.82584 18.7092L5.79276 6.5975C5.84619 6.38095 5.97219 6.18925 6.14976 6.05429C6.32733 5.91933 6.54578 5.84927 6.76872 5.85577H23.1161C23.3313 5.84591 23.5438 5.90758 23.7204 6.03117C23.8969 6.15475 24.0276 6.33329 24.092 6.53894L27.7812 18.4066C28.0334 19.2127 28.0915 20.0669 27.9507 20.8997C27.8099 21.7325 27.4743 22.5202 26.9711 23.1986C26.4762 23.8798 25.8255 24.4328 25.0734 24.8114C24.3213 25.19 23.4896 25.3832 22.6476 25.375V25.375ZM7.50069 7.80769L4.68016 19.1776C4.55456 19.6793 4.5445 20.2029 4.65073 20.709C4.75696 21.2151 4.97671 21.6905 5.29342 22.0993C5.61012 22.5081 6.01551 22.8396 6.47901 23.0689C6.94252 23.2982 7.45204 23.4193 7.96915 23.4231H22.6086C23.1397 23.4239 23.6635 23.2987 24.1368 23.0578C24.6102 22.8169 25.0196 22.4671 25.3315 22.0372C25.6524 21.6048 25.8665 21.1027 25.9564 20.5718C26.0463 20.041 26.0094 19.4963 25.8487 18.9824L22.4134 7.80769H7.50069Z" fill="#F4F7F5"/>
<path d="M19.2122 13.6634C18.9534 13.6634 18.7052 13.5606 18.5221 13.3776C18.3391 13.1946 18.2363 12.9463 18.2363 12.6875V4.8798C18.2363 4.10328 17.9278 3.35856 17.3787 2.80948C16.8296 2.26039 16.0849 1.95192 15.3084 1.95192C14.5319 1.95192 13.7872 2.26039 13.2381 2.80948C12.689 3.35856 12.3805 4.10328 12.3805 4.8798V12.6875C12.3805 12.9463 12.2777 13.1946 12.0947 13.3776C11.9116 13.5606 11.6634 13.6634 11.4045 13.6634C11.1457 13.6634 10.8975 13.5606 10.7144 13.3776C10.5314 13.1946 10.4286 12.9463 10.4286 12.6875V4.8798C10.4286 3.5856 10.9427 2.3444 11.8579 1.42926C12.773 0.514121 14.0142 0 15.3084 0C16.6026 0 17.8438 0.514121 18.7589 1.42926C19.6741 2.3444 20.1882 3.5856 20.1882 4.8798V12.6875C20.1882 12.9463 20.0854 13.1946 19.9023 13.3776C19.7193 13.5606 19.4711 13.6634 19.2122 13.6634Z" fill="#F4F7F5"/>
</g>
<defs>
<clipPath id="clip0_594_8087">
<rect width="28" height="28" fill="white"/>
</clipPath>
</defs>
</svg>
