<svg width="28" height="28" viewBox="0 0 28 28" fill="none" xmlns="http://www.w3.org/2000/svg">
<path d="M14 25.13C13.654 25.1309 13.3111 25.0633 12.9913 24.9311C12.6714 24.799 12.3808 24.6049 12.1363 24.36L3.12378 15.3475C2.41183 14.6278 1.85021 13.7736 1.47165 12.8347C1.09309 11.8958 0.905148 10.891 0.918783 9.87875C0.925643 8.95111 1.11545 8.03394 1.47732 7.17977C1.8392 6.3256 2.36604 5.55121 3.02766 4.90097C3.68929 4.25072 4.47269 3.7374 5.33301 3.39039C6.19334 3.04339 7.11366 2.86952 8.04128 2.87875C8.98551 2.86924 9.92203 3.04944 10.7953 3.40867C11.6686 3.7679 12.4608 4.29884 13.125 4.97L14 5.845L14.7175 5.1275C15.9565 3.85575 17.6143 3.07608 19.384 2.93289C21.1537 2.78971 22.9153 3.29272 24.3425 4.34875C25.155 4.97442 25.8248 5.76601 26.3074 6.67079C26.79 7.57558 27.0743 8.5728 27.1414 9.59606C27.2084 10.6193 27.0567 11.6451 26.6963 12.6051C26.3359 13.5652 25.7751 14.4374 25.0513 15.1638L15.8638 24.36C15.6192 24.6049 15.3287 24.799 15.0088 24.9311C14.6889 25.0633 14.3461 25.1309 14 25.13ZM8.00628 4.62C6.61549 4.61858 5.2787 5.15832 4.27878 6.125C3.76901 6.61548 3.36361 7.20392 3.08694 7.85499C2.81027 8.50607 2.66804 9.20634 2.66878 9.91375C2.66111 10.6919 2.80798 11.4638 3.10087 12.1848C3.39377 12.9058 3.82685 13.5614 4.37503 14.1138L13.3875 23.1263C13.4689 23.2083 13.5657 23.2734 13.6723 23.3178C13.7789 23.3622 13.8933 23.3851 14.0088 23.3851C14.1243 23.3851 14.2387 23.3622 14.3453 23.3178C14.4519 23.2734 14.5487 23.2083 14.63 23.1263L23.8263 13.9213C24.3661 13.37 24.7832 12.7108 25.0501 11.987C25.317 11.2631 25.4277 10.491 25.375 9.72125C25.3283 8.94365 25.1141 8.18533 24.7471 7.49818C24.3802 6.81104 23.869 6.2113 23.2488 5.74C22.1604 4.93753 20.8174 4.5581 19.47 4.6724C18.1226 4.78669 16.8627 5.38692 15.925 6.36125L14.6213 7.7C14.5399 7.78202 14.4432 7.84711 14.3365 7.89153C14.2299 7.93596 14.1155 7.95883 14 7.95883C13.8845 7.95883 13.7702 7.93596 13.6635 7.89153C13.5569 7.84711 13.4601 7.78202 13.3788 7.7L11.8913 6.2125C10.8667 5.19687 9.48391 4.62488 8.04128 4.62H8.00628Z" fill="#F4F7F5"/>
</svg>
