<svg width="97" height="54" viewBox="0 0 97 54" fill="none" xmlns="http://www.w3.org/2000/svg">
<path fill-rule="evenodd" clip-rule="evenodd" d="M3.21212 15.1564V0.865509H0.25V17.7028H13.7094V15.1564H3.21212ZM19.0626 17.2091C20.2059 17.7288 21.4964 17.9886 22.9342 17.9886C24.3719 17.9886 25.6538 17.7288 26.7797 17.2091C27.9057 16.6894 28.7891 15.9273 29.4301 14.9226C30.0883 13.9179 30.4174 12.6966 30.4174 11.2589C30.4174 9.83847 30.0883 8.62591 29.4301 7.62121C28.7891 6.59919 27.9057 5.81969 26.7797 5.2827C25.6538 4.74571 24.3719 4.47721 22.9342 4.47721C21.4964 4.47721 20.2059 4.74571 19.0626 5.2827C17.9194 5.81969 17.0186 6.59919 16.3604 7.62121C15.7021 8.62591 15.373 9.83847 15.373 11.2589C15.373 12.6966 15.7021 13.9179 16.3604 14.9226C17.0186 15.9273 17.9194 16.6894 19.0626 17.2091ZM25.2207 15.1304C24.5278 15.4596 23.7657 15.6241 22.9342 15.6241C22.0854 15.6241 21.3059 15.4596 20.5957 15.1304C19.9028 14.8013 19.3485 14.3076 18.9327 13.6494C18.517 12.9911 18.3091 12.1943 18.3091 11.2589C18.3091 10.3062 18.517 9.50068 18.9327 8.84243C19.3658 8.18419 19.9288 7.68184 20.6217 7.33539C21.3145 6.98895 22.0854 6.81572 22.9342 6.81572C23.783 6.81572 24.5452 6.99761 25.2207 7.36138C25.9136 7.70782 26.4593 8.21017 26.8577 8.86842C27.2734 9.52667 27.4813 10.3235 27.4813 11.2589C27.4813 12.1943 27.2734 12.9911 26.8577 13.6494C26.4593 14.3076 25.9136 14.8013 25.2207 15.1304ZM35.8829 4.76303H32.9987V17.7028H35.8829V10.0011C36.0115 9.60864 36.2107 9.23976 36.4805 8.8944C36.9136 8.32277 37.4679 7.86372 38.1435 7.51728C38.8363 7.15351 39.5985 6.97162 40.43 6.97162C41.5213 6.97162 42.3181 7.23146 42.8205 7.75113C43.3401 8.25348 43.6 9.03298 43.6 10.0896V17.7028H46.4842V9.518C46.4842 8.66921 46.3542 7.93301 46.0944 7.30941C45.8519 6.68581 45.4968 6.16614 45.0291 5.7504C44.5787 5.31734 44.033 4.99688 43.3921 4.78901C42.7685 4.58115 42.0843 4.47721 41.3394 4.47721C40.5426 4.47721 39.8151 4.60713 39.1568 4.86696C38.4986 5.1268 37.9269 5.49057 37.4419 5.95827C36.9569 6.40865 36.5671 6.92832 36.2726 7.51728C36.1117 7.82976 35.9818 8.15259 35.8829 8.48577V4.76303ZM55.4381 15.7021C54.4161 15.7367 53.6366 15.832 53.0996 15.9879C52.5799 16.1265 52.3201 16.4123 52.3201 16.8453C52.3201 17.1052 52.424 17.313 52.6319 17.4689C52.8397 17.6248 53.1342 17.7028 53.5153 17.7028H57.205C58.2616 17.7028 59.1884 17.8241 59.9852 18.0666C60.782 18.3264 61.397 18.7508 61.83 19.3398C62.2804 19.946 62.5056 20.7688 62.5056 21.8082V22.9774H59.5955V22.3798C59.5955 21.531 59.3443 20.9334 58.8419 20.587C58.3396 20.2405 57.638 20.0673 56.7373 20.0673H53.2295C52.5366 20.0673 51.939 20.0067 51.4366 19.8854C50.9516 19.7815 50.5619 19.6169 50.2674 19.3917C49.9729 19.1839 49.7564 18.9327 49.6178 18.6382C49.4792 18.361 49.4099 18.0492 49.4099 17.7028C49.4099 17.0099 49.6178 16.4902 50.0335 16.1438C50.4666 15.7973 51.0296 15.5722 51.7225 15.4682C52.1447 15.4064 52.5792 15.3753 53.0259 15.3747C52.7205 15.2855 52.4246 15.1781 52.1382 15.0525C51.1681 14.6194 50.3973 13.9872 49.8257 13.1557C49.2714 12.3242 48.9942 11.3282 48.9942 10.1676C48.9942 9.007 49.2627 8.0023 49.7997 7.15351C50.354 6.30472 51.1162 5.64647 52.0862 5.17876C53.0736 4.71106 54.1909 4.47721 55.4381 4.47721C55.8019 4.47721 56.1483 4.50319 56.4774 4.55516C56.8239 4.60713 57.153 4.67642 57.4648 4.76303L63.519 4.78901V7.20548C62.6875 7.2228 61.8474 7.1102 60.9986 6.86769C60.438 6.69253 59.9208 6.51343 59.4469 6.33039C59.7496 6.53071 60.033 6.75312 60.297 6.99761C60.782 7.41334 61.1631 7.88971 61.4403 8.4267C61.7174 8.96369 61.856 9.56997 61.856 10.2455C61.856 11.3888 61.5789 12.3675 61.0245 13.1817C60.4876 13.9958 59.734 14.6194 58.764 15.0525C57.8113 15.4855 56.7026 15.7021 55.4381 15.7021ZM57.2829 13.0518C56.7459 13.3116 56.131 13.4415 55.4381 13.4415C54.7452 13.4415 54.1303 13.3116 53.5933 13.0518C53.0563 12.7919 52.6319 12.4195 52.3201 11.9345C52.0083 11.4494 51.8524 10.8605 51.8524 10.1676C51.8524 9.45738 52.0083 8.85976 52.3201 8.37473C52.6319 7.87238 53.0563 7.49129 53.5933 7.23146C54.1476 6.97162 54.7625 6.84171 55.4381 6.84171C56.131 6.84171 56.7459 6.97162 57.2829 7.23146C57.8199 7.49129 58.2443 7.87238 58.5561 8.37473C58.8679 8.87708 59.0238 9.4747 59.0238 10.1676C59.0238 10.8605 58.8679 11.4494 58.5561 11.9345C58.2443 12.4195 57.8199 12.7919 57.2829 13.0518ZM62.4918 22.9807H59.5281L59.8047 48.1522H62.6889L62.4918 22.9807ZM44.2205 42.5138V48.1522H41.2584V31.3149H50.4046C51.2881 31.3149 52.1109 31.4361 52.873 31.6787C53.6352 31.9038 54.3021 32.2503 54.8738 32.718C55.4627 33.1857 55.9131 33.7747 56.2249 34.4849C56.554 35.1778 56.7186 36.0092 56.7186 36.9793C56.7186 37.932 56.554 38.7635 56.2249 39.4737C55.9131 40.1666 55.4627 40.7382 54.8738 41.1886C54.3021 41.639 53.6352 41.9768 52.873 42.202C52.1109 42.4098 51.2881 42.5138 50.4046 42.5138H44.2205ZM44.2205 40.0453H50.6125C51.5652 40.0453 52.3274 39.7682 52.899 39.2139C53.488 38.6595 53.7825 37.9147 53.7825 36.9793C53.7825 36.0092 53.488 35.2557 52.899 34.7187C52.3274 34.1644 51.5652 33.8873 50.6125 33.8873H44.2205V40.0453ZM71.9614 48.438C70.7834 48.438 69.7008 48.1522 68.7134 47.5805C67.7434 47.0089 66.9639 46.2207 66.3749 45.216C65.8033 44.194 65.5175 43.0248 65.5175 41.7083C65.5175 40.3571 65.8119 39.1792 66.4009 38.1745C66.9898 37.1525 67.7867 36.3557 68.7914 35.784C69.7961 35.2124 70.922 34.9266 72.1692 34.9266C73.555 34.9266 74.655 35.2297 75.4691 35.836C76.2833 36.4423 76.8636 37.2564 77.21 38.2785C77.2881 38.5088 77.3574 38.7453 77.4179 38.988V35.2124H80.328V48.1522H77.6258L77.5738 47.6585C77.5391 47.3294 77.5045 46.931 77.4699 46.4633C77.4352 45.9782 77.4179 45.5192 77.4179 45.0861V43.9688C77.21 44.7483 76.8809 45.4759 76.4305 46.1515C75.9975 46.827 75.4085 47.3813 74.6636 47.8144C73.9361 48.2301 73.0353 48.438 71.9614 48.438ZM76.8722 43.9429C77.236 43.2846 77.4179 42.5397 77.4179 41.7083C77.4179 40.7902 77.236 40.0107 76.8722 39.3698C76.5085 38.7115 75.9888 38.2092 75.3132 37.8627C74.6377 37.499 73.8148 37.3171 72.8448 37.3171C71.459 37.3171 70.385 37.7241 69.6228 38.5383C68.8607 39.3524 68.4796 40.4091 68.4796 41.7083C68.4796 42.5571 68.6615 43.3106 69.0252 43.9688C69.4063 44.6271 69.926 45.1381 70.5842 45.5019C71.2425 45.8656 71.996 46.0475 72.8448 46.0475C73.8148 46.0475 74.6377 45.8656 75.3132 45.5019C76.0061 45.1208 76.5258 44.6011 76.8722 43.9429ZM85.4212 35.2124H82.3292L88.0803 47.9984L85.3952 53.3489H88.4353L96.75 35.2124H93.658L89.5134 44.9441L85.4212 35.2124Z" fill="white"/>
<path d="M87.6608 2.01931C85.9078 1.14411 83.9796 0.676724 82.0204 0.652145C80.0613 0.627567 78.1219 1.04643 76.3476 1.87739C74.5732 2.70834 73.0098 3.92987 71.7743 5.45053C70.5388 6.9712 69.6632 8.75161 69.2131 10.6585C68.7631 12.5654 68.7501 14.5495 69.1753 16.4621C69.6005 18.3747 70.4527 20.1664 71.6683 21.703C72.8839 23.2397 74.4312 24.4815 76.1946 25.3355C77.958 26.1895 79.8917 26.6336 81.851 26.6346C84.7789 26.636 87.6214 25.6485 89.9176 23.832C92.2139 22.0156 93.8292 19.4767 94.5018 16.6272C95.1743 13.7776 94.8647 10.7845 93.6229 8.13297C92.3812 5.48148 90.2803 3.32716 87.6608 2.01931ZM81.851 14.4548C81.7255 14.4559 81.6015 14.4267 81.4897 14.3696C81.3517 14.3006 81.2363 14.1938 81.1568 14.0616C81.0774 13.9294 81.0372 13.7773 81.0411 13.6231C81.0449 13.4689 81.0926 13.319 81.1785 13.191C81.2644 13.0629 81.385 12.9619 81.5262 12.8999C81.6286 12.8548 81.7392 12.8313 81.851 12.8309C81.9766 12.8298 82.1005 12.859 82.2124 12.9161C82.3503 12.9851 82.4658 13.0919 82.5452 13.2241C82.6247 13.3563 82.6648 13.5084 82.661 13.6626C82.6572 13.8168 82.6095 13.9667 82.5236 14.0948C82.4376 14.2228 82.317 14.3238 82.1758 14.3858C82.0735 14.431 81.9629 14.4545 81.851 14.4548Z" fill="#020304"/>
<path d="M81.8514 9.58293C81.0484 9.58293 80.2635 9.82104 79.5959 10.2671C78.9282 10.7133 78.4078 11.3473 78.1005 12.0892C77.7933 12.831 77.7129 13.6474 77.8695 14.4349C78.0262 15.2224 78.4128 15.9459 78.9806 16.5136C79.5484 17.0814 80.2718 17.4681 81.0594 17.6248C81.8469 17.7814 82.6632 17.701 83.4051 17.3937C84.1469 17.0864 84.781 16.5661 85.2271 15.8984C85.6732 15.2308 85.9113 14.4458 85.9113 13.6428C85.9113 12.5661 85.4836 11.5334 84.7222 10.7721C83.9608 10.0107 82.9282 9.58293 81.8514 9.58293ZM81.8514 14.4548C81.6908 14.4548 81.5338 14.4072 81.4003 14.318C81.2668 14.2288 81.1627 14.1019 81.1012 13.9536C81.0398 13.8052 81.0237 13.6419 81.055 13.4844C81.0864 13.3269 81.1637 13.1822 81.2773 13.0687C81.3908 12.9551 81.5355 12.8778 81.693 12.8465C81.8505 12.8151 82.0138 12.8312 82.1622 12.8927C82.3105 12.9541 82.4373 13.0582 82.5266 13.1917C82.6158 13.3253 82.6634 13.4823 82.6634 13.6428C82.6634 13.8582 82.5779 14.0647 82.4256 14.217C82.2733 14.3693 82.0668 14.4548 81.8514 14.4548Z" fill="#EBDFC6"/>
<g opacity="0.1">
<path d="M77.7383 1.31695L81.5912 12.8715C81.4714 12.9099 81.3628 12.9768 81.2745 13.0664C81.1948 13.146 81.1326 13.2414 81.0918 13.3465L69.7524 8.909C70.4473 7.1365 71.5226 5.53801 72.9024 4.22624C74.2822 2.91448 75.933 1.92137 77.7383 1.31695Z" fill="#F3DBD7"/>
<path d="M93.9496 18.3767C93.2543 20.1497 92.1784 21.7484 90.7979 23.0602C89.4173 24.372 87.7657 25.3649 85.9596 25.9688L82.1108 14.4143C82.2306 14.3758 82.3392 14.3089 82.4275 14.2194C82.5072 14.1397 82.5694 14.0443 82.6102 13.9392L93.9496 18.3767Z" fill="#F3DBD7"/>
</g>
</svg>
