<svg width="28" height="28" viewBox="0 0 28 28" fill="none" xmlns="http://www.w3.org/2000/svg">
<path d="M26.1849 24.7181L19.012 17.5343C20.4261 15.837 21.2766 13.668 21.2766 11.299C21.2766 5.89442 16.8448 1.5 11.3934 1.5C5.94205 1.5 1.5 5.89955 1.5 11.3041C1.5 16.7087 5.93181 21.1031 11.3832 21.1031C13.699 21.1031 15.8304 20.3083 17.5211 18.9803L24.7196 26.1846C25.1397 26.6051 25.7648 26.6051 26.1849 26.1846C26.605 25.7642 26.605 25.1386 26.1849 24.7181ZM3.60063 11.3041C3.60063 7.0584 7.09484 3.60748 11.3832 3.60748C15.6715 3.60748 19.1657 7.0584 19.1657 11.3041C19.1657 15.5498 15.6715 19.0008 11.3832 19.0008C7.09484 19.0008 3.60063 15.5447 3.60063 11.3041Z" fill="#F4F7F5"/>
</svg>
