<svg width="28" height="28" viewBox="0 0 28 28" fill="none" xmlns="http://www.w3.org/2000/svg">
<path d="M14 14C15.2114 14 16.3956 13.6408 17.4029 12.9678C18.4101 12.2947 19.1952 11.3381 19.6588 10.2189C20.1224 9.09974 20.2436 7.86821 20.0073 6.68007C19.771 5.49194 19.1876 4.40057 18.331 3.54397C17.4744 2.68738 16.3831 2.10403 15.1949 1.86769C14.0068 1.63136 12.7753 1.75265 11.6561 2.21624C10.5369 2.67983 9.58027 3.46488 8.90725 4.47213C8.23422 5.47939 7.875 6.66359 7.875 7.875C7.875 9.49945 8.52031 11.0574 9.66897 12.206C10.8176 13.3547 12.3755 14 14 14ZM14 3.5C14.8653 3.5 15.7112 3.75659 16.4306 4.23732C17.1501 4.71805 17.7108 5.40134 18.042 6.20076C18.3731 7.00019 18.4597 7.87986 18.2909 8.72852C18.1221 9.57719 17.7054 10.3567 17.0936 10.9686C16.4817 11.5804 15.7022 11.9971 14.8535 12.1659C14.0049 12.3347 13.1252 12.2481 12.3258 11.917C11.5263 11.5858 10.8431 11.0251 10.3623 10.3056C9.88159 9.58616 9.625 8.7403 9.625 7.875C9.625 6.71468 10.0859 5.60188 10.9064 4.78141C11.7269 3.96094 12.8397 3.5 14 3.5V3.5Z" fill="#F4F7F5"/>
<path d="M14.875 15.75H13.125C10.5723 15.75 8.12413 16.7641 6.3191 18.5691C4.51406 20.3741 3.5 22.8223 3.5 25.375C3.5 25.6071 3.59219 25.8296 3.75628 25.9937C3.92038 26.1578 4.14294 26.25 4.375 26.25H23.625C23.8571 26.25 24.0796 26.1578 24.2437 25.9937C24.4078 25.8296 24.5 25.6071 24.5 25.375C24.5 22.8223 23.4859 20.3741 21.6809 18.5691C19.8759 16.7641 17.4277 15.75 14.875 15.75ZM5.3025 24.5C5.51766 22.5756 6.43432 20.7979 7.87734 19.5066C9.32037 18.2153 11.1886 17.5009 13.125 17.5H14.875C16.8114 17.5009 18.6796 18.2153 20.1227 19.5066C21.5657 20.7979 22.4823 22.5756 22.6975 24.5H5.3025Z" fill="#F4F7F5"/>
</svg>
